<svg aria-labelledby="coinbase-wallet-logo" fill="none" height="100%" viewBox="0 0 101 101" xmlns="http://www.w3.org/2000/svg"><title id="coinbase-wallet-logo">Coinbase Wallet Logo</title><path d="M50.3633 100.363C77.9775 100.363 100.363 77.9775 100.363 50.3633C100.363 22.749 77.9775 0.363281 50.3633 0.363281C22.7491 0.363281 0.363297 22.749 0.363297 50.3633C0.363297 77.9775 22.7491 100.363 50.3633 100.363Z" fill="#1B53E4"></path><path clip-rule="evenodd" d="M15.23 50.3047C15.23 69.6721 30.9304 85.3725 50.2979 85.3725C69.6652 85.3725 85.3657 69.6721 85.3657 50.3047C85.3657 30.9372 69.6652 15.2369 50.2979 15.2369C30.9304 15.2369 15.23 30.9372 15.23 50.3047ZM43.5824 38.997C41.051 38.997 38.999 41.0491 38.999 43.5804V57.013C38.999 59.5442 41.051 61.5963 43.5824 61.5963H57.0149C59.5462 61.5963 61.5982 59.5442 61.5982 57.013V43.5804C61.5982 41.0491 59.5462 38.997 57.0149 38.997H43.5824Z" fill="white" fill-rule="evenodd"></path></svg>